<?xml version="1.0" encoding="UTF-8"?>
<svg id="Layer_1" data-name="Layer 1" xmlns="http://www.w3.org/2000/svg" viewBox="0 0 965 835.5">
  <defs>
    <style>
      .cls-1 {
        fill: #fff;
      }
    </style>
  </defs>
  <path class="cls-1" d="M666.7,516c-12.26-9.9-33.48-14.85-63.64-14.85h-323.86v138.6h340.83c24.51,0,41.48-4.46,50.91-13.43,9.42-8.96,14.15-23.34,14.15-43.14v-25.46c0-17.9-6.15-31.82-18.38-41.72Z"/>
  <path class="cls-1" d="M0-2.5v841h965V-2.5H0ZM960.86,594.49c0,28.29-3.31,56.57-9.9,84.86-6.61,28.28-19.09,53.98-37.48,77.07-18.39,23.11-44.33,41.72-77.79,55.86-33.48,14.15-77.08,21.22-130.82,21.22H3.41v-511.39l558.63-.57c24.5,0,41.48-5.17,50.91-15.56,9.41-10.36,14.14-24.5,14.14-42.43v-14.14c0-19.79-4.73-33.94-14.14-42.43-9.44-8.48-30.65-12.73-63.64-12.73l-545.9.84V.5h644.9c88.62,0,153.21,17.68,193.75,53.03,40.53,35.36,60.82,78.03,60.82,127.99v42.44c0,38.66-8.27,70.49-24.75,95.46-16.51,24.99-34.19,42.67-53.03,53.03,41.48,13.21,74.47,36.06,99,68.59,24.51,32.53,36.77,75.2,36.77,127.99v25.46Z"/>
</svg>